<mxfile host="app.diagrams.net" modified="2023-08-10T11:13:53.021Z" agent="Mozilla/5.0 (Windows NT 10.0; Win64; x64) AppleWebKit/537.36 (KHTML, like Gecko) Chrome/115.0.0.0 Safari/537.36" etag="exL3-bTjZ1dkKXgdbGCC" version="21.6.7" type="github">
  <diagram name="Page-1" id="c7558073-3199-34d8-9f00-42111426c3f3">
    <mxGraphModel dx="1780" dy="962" grid="1" gridSize="10" guides="1" tooltips="1" connect="1" arrows="1" fold="1" page="1" pageScale="1" pageWidth="826" pageHeight="1169" background="none" math="0" shadow="0">
      <root>
        <mxCell id="0" />
        <mxCell id="1" parent="0" />
        <mxCell id="2" value="&lt;p style=&quot;margin: 0px; margin-top: 4px; text-align: center; text-decoration: underline;&quot;&gt;&lt;strong&gt;PRODUCTION&lt;br&gt;&lt;/strong&gt;&lt;/p&gt;&lt;hr&gt;&lt;p style=&quot;margin: 0px; margin-left: 8px;&quot;&gt;REQUEST&lt;/p&gt;&lt;p style=&quot;margin: 0px; margin-left: 8px;&quot;&gt;QUANTITY FOR&lt;/p&gt;&lt;p style=&quot;margin: 0px; margin-left: 8px;&quot;&gt;&amp;nbsp;DELIVERY&lt;/p&gt;" style="verticalAlign=middle;align=center;overflow=fill;fontSize=12;fontFamily=Helvetica;html=1;rounded=1;fontStyle=1;strokeWidth=3;fillColor=#E6FFCC" parent="1" vertex="1">
          <mxGeometry x="176" y="164" width="114" height="90" as="geometry" />
        </mxCell>
        <mxCell id="3" value="SIR GARRY" style="whiteSpace=wrap;align=center;verticalAlign=middle;fontStyle=1;strokeWidth=3;fillColor=#FFFFCC" parent="1" vertex="1">
          <mxGeometry x="60" y="34" width="90" height="60" as="geometry" />
        </mxCell>
        <mxCell id="P1de6zjuFpXmfByZqaUR-125" style="edgeStyle=orthogonalEdgeStyle;rounded=0;orthogonalLoop=1;jettySize=auto;html=1;entryX=0.319;entryY=-0.002;entryDx=0;entryDy=0;entryPerimeter=0;exitX=0.728;exitY=1.046;exitDx=0;exitDy=0;exitPerimeter=0;fillColor=#e1d5e7;strokeColor=#9673a6;" edge="1" parent="1">
          <mxGeometry relative="1" as="geometry">
            <mxPoint x="231.44199999999992" y="353.99999999999994" as="sourcePoint" />
            <mxPoint x="234.50999999999996" y="401.27000000000004" as="targetPoint" />
            <Array as="points">
              <mxPoint x="235" y="354" />
              <mxPoint x="235" y="378" />
              <mxPoint x="234" y="378" />
            </Array>
          </mxGeometry>
        </mxCell>
        <mxCell id="P1de6zjuFpXmfByZqaUR-131" style="edgeStyle=orthogonalEdgeStyle;rounded=0;orthogonalLoop=1;jettySize=auto;html=1;entryX=0;entryY=0.5;entryDx=0;entryDy=0;fillColor=#d5e8d4;strokeColor=#82b366;shape=flexArrow;" edge="1" parent="1" source="5" target="P1de6zjuFpXmfByZqaUR-117">
          <mxGeometry relative="1" as="geometry" />
        </mxCell>
        <mxCell id="5" value="QC PRODUCTION HEAD PREPARATIONÂ " style="shape=process;whiteSpace=wrap;align=center;verticalAlign=middle;size=0.0475;fontStyle=1;strokeWidth=3;fillColor=#FFCCCC" parent="1" vertex="1">
          <mxGeometry x="48.5" y="304" width="251.5" height="50" as="geometry" />
        </mxCell>
        <mxCell id="8" value="&lt;p style=&quot;margin: 0px; margin-top: 4px; text-align: center; text-decoration: underline;&quot;&gt;&lt;strong&gt;DELIVERY PICKUP&lt;/strong&gt;&lt;/p&gt;&lt;hr&gt;&lt;p style=&quot;margin: 0px; margin-left: 8px;&quot;&gt;SIR JOSEPH&lt;/p&gt;" style="verticalAlign=middle;align=center;overflow=fill;fontSize=12;fontFamily=Helvetica;html=1;rounded=1;fontStyle=1;strokeWidth=3;fillColor=#E6FFCC" parent="1" vertex="1">
          <mxGeometry x="625" y="164" width="110" height="90" as="geometry" />
        </mxCell>
        <mxCell id="P1de6zjuFpXmfByZqaUR-148" style="edgeStyle=orthogonalEdgeStyle;rounded=0;orthogonalLoop=1;jettySize=auto;html=1;entryX=1;entryY=0.5;entryDx=0;entryDy=0;" edge="1" parent="1" source="9" target="P1de6zjuFpXmfByZqaUR-143">
          <mxGeometry relative="1" as="geometry" />
        </mxCell>
        <mxCell id="P1de6zjuFpXmfByZqaUR-149" value="RECORD IN FG" style="edgeLabel;html=1;align=center;verticalAlign=middle;resizable=0;points=[];" vertex="1" connectable="0" parent="P1de6zjuFpXmfByZqaUR-148">
          <mxGeometry x="-0.1969" y="1" relative="1" as="geometry">
            <mxPoint as="offset" />
          </mxGeometry>
        </mxCell>
        <mxCell id="9" value="&lt;p style=&quot;margin: 0px; margin-top: 4px; text-align: center; text-decoration: underline;&quot;&gt;WAREHOUSE&lt;/p&gt;&lt;hr&gt;&lt;p style=&quot;margin: 0px; margin-left: 8px;&quot;&gt;New System&lt;/p&gt;&lt;p style=&quot;margin: 0px; margin-left: 8px;&quot;&gt;Design&lt;/p&gt;" style="verticalAlign=middle;align=center;overflow=fill;fontSize=12;fontFamily=Helvetica;html=1;rounded=1;fontStyle=1;strokeWidth=3;fillColor=#E6FFCC" parent="1" vertex="1">
          <mxGeometry x="630" y="429" width="110" height="90" as="geometry" />
        </mxCell>
        <mxCell id="P1de6zjuFpXmfByZqaUR-163" style="edgeStyle=none;rounded=0;orthogonalLoop=1;jettySize=auto;html=1;entryX=0;entryY=1;entryDx=0;entryDy=0;" edge="1" parent="1" source="10" target="15">
          <mxGeometry relative="1" as="geometry">
            <mxPoint x="99.99999999999977" y="720" as="targetPoint" />
            <Array as="points">
              <mxPoint x="100" y="740" />
            </Array>
          </mxGeometry>
        </mxCell>
        <mxCell id="10" value="&lt;p style=&quot;margin: 4px 0px 0px; text-align: center;&quot;&gt;&lt;strong style=&quot;&quot;&gt;&lt;strong style=&quot;&quot;&gt;PURCHASING&amp;nbsp;&lt;/strong&gt;&lt;br&gt;&lt;/strong&gt;&lt;/p&gt;&lt;hr&gt;&lt;p style=&quot;margin: 0px; margin-left: 8px;&quot;&gt;Request&lt;/p&gt;&lt;p style=&quot;margin: 0px; margin-left: 8px;&quot;&gt;Tape&lt;/p&gt;&lt;p style=&quot;margin: 0px; margin-left: 8px;&quot;&gt;Basahan&lt;/p&gt;" style="verticalAlign=middle;align=center;overflow=fill;fontSize=12;fontFamily=Helvetica;html=1;rounded=1;fontStyle=1;strokeWidth=3;fillColor=#E6FFCC" parent="1" vertex="1">
          <mxGeometry x="29.999999999999915" y="414" width="110" height="90" as="geometry" />
        </mxCell>
        <mxCell id="12" value="Management" style="whiteSpace=wrap;align=center;verticalAlign=middle;fontStyle=1;strokeWidth=3;fillColor=#FFFFCC" parent="1" vertex="1">
          <mxGeometry x="391" y="24.00000000000003" width="90" height="60" as="geometry" />
        </mxCell>
        <mxCell id="13" value="REPRESENTEATIVE" style="whiteSpace=wrap;align=center;verticalAlign=middle;fontStyle=1;strokeWidth=3;fillColor=#FFFFCC" parent="1" vertex="1">
          <mxGeometry x="395.50000000000006" y="580" width="90" height="60" as="geometry" />
        </mxCell>
        <mxCell id="P1de6zjuFpXmfByZqaUR-165" style="edgeStyle=none;rounded=0;orthogonalLoop=1;jettySize=auto;html=1;" edge="1" parent="1" source="14">
          <mxGeometry relative="1" as="geometry">
            <mxPoint x="40" y="880" as="targetPoint" />
          </mxGeometry>
        </mxCell>
        <mxCell id="14" value="Engineering" style="whiteSpace=wrap;align=center;verticalAlign=middle;fontStyle=1;strokeWidth=3;fillColor=#FFFFCC" parent="1" vertex="1">
          <mxGeometry x="246" y="839.9999999999999" width="90" height="60" as="geometry" />
        </mxCell>
        <mxCell id="P1de6zjuFpXmfByZqaUR-162" style="edgeStyle=none;rounded=0;orthogonalLoop=1;jettySize=auto;html=1;entryX=0.75;entryY=1;entryDx=0;entryDy=0;exitX=0;exitY=0.75;exitDx=0;exitDy=0;" edge="1" parent="1" source="15" target="10">
          <mxGeometry relative="1" as="geometry">
            <mxPoint x="123.49999999999977" y="504" as="targetPoint" />
            <mxPoint x="423.5" y="720.0281690140846" as="sourcePoint" />
            <Array as="points">
              <mxPoint x="113.5" y="734" />
            </Array>
          </mxGeometry>
        </mxCell>
        <mxCell id="P1de6zjuFpXmfByZqaUR-164" style="edgeStyle=none;rounded=0;orthogonalLoop=1;jettySize=auto;html=1;entryX=1;entryY=0.5;entryDx=0;entryDy=0;" edge="1" parent="1" source="15" target="14">
          <mxGeometry relative="1" as="geometry">
            <Array as="points">
              <mxPoint x="445" y="870" />
            </Array>
          </mxGeometry>
        </mxCell>
        <mxCell id="15" value="Vendors" style="whiteSpace=wrap;align=center;verticalAlign=middle;fontStyle=1;strokeWidth=3;fillColor=#FFFFCC" parent="1" vertex="1">
          <mxGeometry x="399.9999999999999" y="694" width="90" height="60" as="geometry" />
        </mxCell>
        <mxCell id="P1de6zjuFpXmfByZqaUR-124" style="edgeStyle=orthogonalEdgeStyle;rounded=0;orthogonalLoop=1;jettySize=auto;html=1;entryX=0.821;entryY=0.98;entryDx=0;entryDy=0;entryPerimeter=0;fillColor=#e1d5e7;strokeColor=#9673a6;" edge="1" parent="1">
          <mxGeometry relative="1" as="geometry">
            <mxPoint x="270.0006542056075" y="405" as="sourcePoint" />
            <mxPoint x="264.9914999999999" y="354" as="targetPoint" />
            <Array as="points">
              <mxPoint x="265" y="405" />
            </Array>
          </mxGeometry>
        </mxCell>
        <mxCell id="11" value="&lt;p style=&quot;margin: 0px; margin-top: 4px; text-align: center; text-decoration: underline;&quot;&gt;PAPER DEPT.&amp;nbsp;&lt;/p&gt;&lt;hr&gt;&lt;p style=&quot;margin: 0px; margin-left: 8px;&quot;&gt;PREPARATION&amp;nbsp;&lt;/p&gt;&lt;p style=&quot;margin: 0px; margin-left: 8px;&quot;&gt;QUANTITY&lt;/p&gt;&lt;p style=&quot;text-align: left; margin: 0px 0px 0px 8px;&quot;&gt;&lt;span style=&quot;background-color: initial;&quot;&gt;paper bag&lt;/span&gt;&lt;/p&gt;&lt;p style=&quot;text-align: left; margin: 0px 0px 0px 8px;&quot;&gt;handle&lt;/p&gt;&lt;p style=&quot;text-align: left; margin: 0px 0px 0px 8px;&quot;&gt;glue&lt;/p&gt;&lt;p style=&quot;text-align: left; margin: 0px 0px 0px 8px;&quot;&gt;pambalot&lt;/p&gt;&lt;p style=&quot;text-align: left; margin: 0px 0px 0px 8px;&quot;&gt;&lt;br&gt;&lt;/p&gt;&lt;p style=&quot;text-align: left; margin: 0px 0px 0px 8px;&quot;&gt;tape | basahan&amp;nbsp;&lt;/p&gt;&lt;p style=&quot;text-align: left; margin: 0px 0px 0px 8px;&quot;&gt;request in purchasing&lt;/p&gt;" style="verticalAlign=middle;align=center;overflow=fill;fontSize=12;fontFamily=Helvetica;html=1;rounded=1;fontStyle=1;strokeWidth=3;fillColor=#E6FFCC" parent="1" vertex="1">
          <mxGeometry x="190" y="404" width="140" height="215" as="geometry" />
        </mxCell>
        <mxCell id="51" value="" style="endArrow=none;noEdgeStyle=1;strokeColor=#990000;strokeWidth=2" parent="1" source="9" target="11" edge="1">
          <mxGeometry relative="1" as="geometry">
            <mxPoint x="205.00819672131135" y="435" as="sourcePoint" />
            <mxPoint x="400.32786885245895" y="604" as="targetPoint" />
          </mxGeometry>
        </mxCell>
        <mxCell id="53" value="OUT GOINGITEMS&#xa;" style="text;spacingTop=-5;align=center;fontColor=#51e203;" parent="1" vertex="1">
          <mxGeometry x="216" y="144" width="30" height="20" as="geometry" />
        </mxCell>
        <mxCell id="58" value="" style="edgeStyle=elbowEdgeStyle;elbow=vertical;strokeColor=#82b366;strokeWidth=2;exitX=0.376;exitY=1.011;exitDx=0;exitDy=0;exitPerimeter=0;fillColor=#d5e8d4;entryX=0.75;entryY=0;entryDx=0;entryDy=0;" parent="1" source="12" target="53" edge="1">
          <mxGeometry width="100" height="100" relative="1" as="geometry">
            <mxPoint x="423.5300000000001" y="189.99999999999997" as="sourcePoint" />
            <mxPoint x="423.5" y="300.04" as="targetPoint" />
            <Array as="points">
              <mxPoint x="300" y="114" />
            </Array>
          </mxGeometry>
        </mxCell>
        <mxCell id="P1de6zjuFpXmfByZqaUR-106" style="edgeStyle=orthogonalEdgeStyle;rounded=0;orthogonalLoop=1;jettySize=auto;html=1;exitX=0.75;exitY=1;exitDx=0;exitDy=0;" edge="1" parent="1" source="62">
          <mxGeometry relative="1" as="geometry">
            <mxPoint x="445.66666666666674" y="124" as="targetPoint" />
          </mxGeometry>
        </mxCell>
        <mxCell id="62" value="Progress&#xa;reports" style="text;spacingTop=-5;align=center" parent="1" vertex="1">
          <mxGeometry x="423.5000000000001" y="114.00000000000003" width="30" height="20" as="geometry" />
        </mxCell>
        <mxCell id="P1de6zjuFpXmfByZqaUR-160" style="edgeStyle=none;rounded=0;orthogonalLoop=1;jettySize=auto;html=1;fillColor=#f8cecc;strokeColor=#b85450;" edge="1" parent="1" source="79">
          <mxGeometry relative="1" as="geometry">
            <mxPoint x="596.5" y="330" as="targetPoint" />
          </mxGeometry>
        </mxCell>
        <mxCell id="79" value="VERIFICATION | &#xa;QUALITY CHECKING" style="text;spacingTop=-5;align=center" parent="1" vertex="1">
          <mxGeometry x="581.5" y="254" width="30" height="20" as="geometry" />
        </mxCell>
        <mxCell id="82" value="Progress&#xa;Reports" style="text;spacingTop=-5;align=center" parent="1" vertex="1">
          <mxGeometry x="560.0000000000005" y="674.0000000000001" width="30" height="20" as="geometry" />
        </mxCell>
        <mxCell id="94" value="System&#xa;specs" style="text;spacingTop=-5;align=center" parent="1" vertex="1">
          <mxGeometry x="139.99999999999994" y="519.0000000000001" width="30" height="20" as="geometry" />
        </mxCell>
        <mxCell id="P1de6zjuFpXmfByZqaUR-98" style="edgeStyle=orthogonalEdgeStyle;rounded=0;orthogonalLoop=1;jettySize=auto;html=1;exitX=0.5;exitY=1;exitDx=0;exitDy=0;" edge="1" parent="1" source="53" target="53">
          <mxGeometry relative="1" as="geometry" />
        </mxCell>
        <mxCell id="P1de6zjuFpXmfByZqaUR-100" value="" style="edgeStyle=elbowEdgeStyle;elbow=vertical;strokeColor=#82b366;strokeWidth=2;exitX=0.38;exitY=1.022;exitDx=0;exitDy=0;exitPerimeter=0;fillColor=#d5e8d4;" edge="1" parent="1" source="2">
          <mxGeometry width="100" height="100" relative="1" as="geometry">
            <mxPoint x="236" y="254" as="sourcePoint" />
            <mxPoint x="220" y="304" as="targetPoint" />
            <Array as="points">
              <mxPoint x="230" y="294" />
            </Array>
          </mxGeometry>
        </mxCell>
        <mxCell id="P1de6zjuFpXmfByZqaUR-101" value="" style="edgeStyle=elbowEdgeStyle;elbow=vertical;strokeColor=#b85450;strokeWidth=2;exitX=0.376;exitY=1.011;exitDx=0;exitDy=0;exitPerimeter=0;fillColor=#f8cecc;" edge="1" parent="1">
          <mxGeometry width="100" height="100" relative="1" as="geometry">
            <mxPoint x="453.5" y="85.5" as="sourcePoint" />
            <mxPoint x="680" y="134" as="targetPoint" />
            <Array as="points">
              <mxPoint x="328.5" y="114.5" />
            </Array>
          </mxGeometry>
        </mxCell>
        <mxCell id="P1de6zjuFpXmfByZqaUR-102" value="IN COMING FG ITEMS&#xa;" style="text;spacingTop=-5;align=center;fontColor=#eb0505;" vertex="1" parent="1">
          <mxGeometry x="669" y="144" width="30" height="20" as="geometry" />
        </mxCell>
        <mxCell id="91" value="issued request" style="text;spacingTop=-5;align=center;fontSize=11;fontColor=#ff0000;" parent="1" vertex="1">
          <mxGeometry x="120" y="384.0000000000002" width="30" height="20" as="geometry" />
        </mxCell>
        <mxCell id="P1de6zjuFpXmfByZqaUR-108" value="" style="edgeStyle=elbowEdgeStyle;elbow=horizontal;strokeColor=#d79b00;strokeWidth=2;fillColor=#ffe6cc;entryX=0.304;entryY=1.051;entryDx=0;entryDy=0;entryPerimeter=0;exitX=0.838;exitY=-0.018;exitDx=0;exitDy=0;exitPerimeter=0;" edge="1" parent="1" source="10" target="5">
          <mxGeometry width="100" height="100" relative="1" as="geometry">
            <mxPoint x="124" y="448" as="sourcePoint" />
            <mxPoint x="124" y="394" as="targetPoint" />
            <Array as="points">
              <mxPoint x="124" y="414" />
            </Array>
          </mxGeometry>
        </mxCell>
        <mxCell id="P1de6zjuFpXmfByZqaUR-117" value="PRODUCTION SUPERVISOR&#xa;OR QA SUPERVISOR&#xa;Â MONITORING | CHECKING VERIFICATION" style="shape=process;whiteSpace=wrap;align=center;verticalAlign=middle;size=0.0475;fontStyle=1;strokeWidth=3;fillColor=#00FF00;" vertex="1" parent="1">
          <mxGeometry x="330" y="293" width="251.5" height="71" as="geometry" />
        </mxCell>
        <mxCell id="P1de6zjuFpXmfByZqaUR-134" value="" style="edgeStyle=elbowEdgeStyle;elbow=vertical;strokeColor=#b85450;strokeWidth=2;exitX=0.5;exitY=1;exitDx=0;exitDy=0;fillColor=#f8cecc;" edge="1" parent="1">
          <mxGeometry width="100" height="100" relative="1" as="geometry">
            <mxPoint x="681" y="254" as="sourcePoint" />
            <mxPoint x="750" y="303" as="targetPoint" />
            <Array as="points">
              <mxPoint x="516" y="283" />
            </Array>
          </mxGeometry>
        </mxCell>
        <mxCell id="P1de6zjuFpXmfByZqaUR-141" style="edgeStyle=orthogonalEdgeStyle;rounded=0;orthogonalLoop=1;jettySize=auto;html=1;entryX=1;entryY=0.5;entryDx=0;entryDy=0;fillColor=#f8cecc;strokeColor=#b85450;shape=flexArrow;" edge="1" parent="1" source="P1de6zjuFpXmfByZqaUR-138" target="P1de6zjuFpXmfByZqaUR-117">
          <mxGeometry relative="1" as="geometry" />
        </mxCell>
        <mxCell id="P1de6zjuFpXmfByZqaUR-138" value="CHECKER RECEIVING QUANTITY" style="shape=process;whiteSpace=wrap;align=center;verticalAlign=middle;size=0.0475;fontStyle=1;strokeWidth=3;fillColor=#dae8fc;strokeColor=#6c8ebf;" vertex="1" parent="1">
          <mxGeometry x="616" y="304" width="184" height="50" as="geometry" />
        </mxCell>
        <mxCell id="P1de6zjuFpXmfByZqaUR-139" value="" style="edgeStyle=elbowEdgeStyle;elbow=vertical;strokeColor=#d79b00;strokeWidth=2;fillColor=#ffe6cc;exitX=0.046;exitY=1.012;exitDx=0;exitDy=0;exitPerimeter=0;entryX=0.273;entryY=0;entryDx=0;entryDy=0;entryPerimeter=0;" edge="1" parent="1" source="5" target="10">
          <mxGeometry width="100" height="100" relative="1" as="geometry">
            <mxPoint x="60" y="355" as="sourcePoint" />
            <mxPoint x="60" y="449" as="targetPoint" />
            <Array as="points" />
          </mxGeometry>
        </mxCell>
        <mxCell id="90" value="for request&#xa;" style="text;spacingTop=-5;align=center;shadow=1;" parent="1" vertex="1">
          <mxGeometry x="48.5" y="364" width="30" height="20" as="geometry" />
        </mxCell>
        <mxCell id="P1de6zjuFpXmfByZqaUR-143" value="&lt;p style=&quot;margin: 0px; margin-top: 4px; text-align: center; text-decoration: underline;&quot;&gt;&lt;strong&gt;OFFICE&lt;/strong&gt;&lt;/p&gt;&lt;hr&gt;&lt;p style=&quot;margin: 0px; margin-left: 8px;&quot;&gt;REPRESENTATIVE&lt;/p&gt;&lt;p style=&quot;margin: 0px; margin-left: 8px;&quot;&gt;Record outgoing&amp;nbsp;&lt;/p&gt;&lt;p style=&quot;margin: 0px; margin-left: 8px;&quot;&gt;ITEM&lt;/p&gt;" style="verticalAlign=middle;align=center;overflow=fill;fontSize=12;fontFamily=Helvetica;html=1;rounded=1;fontStyle=1;strokeWidth=3;fillColor=#E6FFCC" vertex="1" parent="1">
          <mxGeometry x="381" y="429" width="119" height="90" as="geometry" />
        </mxCell>
        <mxCell id="P1de6zjuFpXmfByZqaUR-144" value="" style="edgeStyle=elbowEdgeStyle;elbow=vertical;strokeColor=#82b366;strokeWidth=2;exitX=0.437;exitY=1;exitDx=0;exitDy=0;exitPerimeter=0;fillColor=#d5e8d4;entryX=0.5;entryY=0;entryDx=0;entryDy=0;" edge="1" parent="1" source="P1de6zjuFpXmfByZqaUR-117" target="P1de6zjuFpXmfByZqaUR-143">
          <mxGeometry width="100" height="100" relative="1" as="geometry">
            <mxPoint x="432" y="364" as="sourcePoint" />
            <mxPoint x="450" y="414" as="targetPoint" />
            <Array as="points">
              <mxPoint x="440" y="393" />
            </Array>
          </mxGeometry>
        </mxCell>
        <mxCell id="P1de6zjuFpXmfByZqaUR-146" value="" style="edgeStyle=elbowEdgeStyle;elbow=vertical;strokeColor=#b85450;strokeWidth=2;exitX=0.376;exitY=1.011;exitDx=0;exitDy=0;exitPerimeter=0;fillColor=#f8cecc;entryX=0.591;entryY=0.015;entryDx=0;entryDy=0;entryPerimeter=0;" edge="1" parent="1" target="9">
          <mxGeometry width="100" height="100" relative="1" as="geometry">
            <mxPoint x="490" y="364" as="sourcePoint" />
            <mxPoint x="716.5" y="412.5" as="targetPoint" />
            <Array as="points">
              <mxPoint x="365" y="393" />
            </Array>
          </mxGeometry>
        </mxCell>
        <mxCell id="P1de6zjuFpXmfByZqaUR-150" value="TO WAREHOUSE AFTER CHECKING" style="edgeLabel;html=1;align=center;verticalAlign=middle;resizable=0;points=[];" vertex="1" connectable="0" parent="P1de6zjuFpXmfByZqaUR-146">
          <mxGeometry x="0.0908" y="-1" relative="1" as="geometry">
            <mxPoint as="offset" />
          </mxGeometry>
        </mxCell>
      </root>
    </mxGraphModel>
  </diagram>
</mxfile>
